<svg width="58" height="64" viewBox="0 0 58 64" fill="none" xmlns="http://www.w3.org/2000/svg">
<g clip-path="url(#clip0_6_57)">
<path fill-rule="evenodd" clip-rule="evenodd" d="M14.5837 7.51068C14.7139 7.28348 15.0026 7.20551 15.2284 7.33653L42.8422 23.3563C43.068 23.4873 43.1455 23.7777 43.0153 24.0049C42.8851 24.2321 42.5964 24.3101 42.3706 24.1791L14.7568 8.15927C14.531 8.02826 14.4535 7.73787 14.5837 7.51068Z" fill="#845EF7"/>
<path fill-rule="evenodd" clip-rule="evenodd" d="M25.4127 0.909019C26.4427 0.313506 27.6109 0 28.8 0C29.9891 0 31.1573 0.313506 32.1873 0.909019C32.1876 0.909208 32.1879 0.909397 32.1882 0.909587L54.2118 13.5182C55.2409 14.1135 56.0957 14.9694 56.6904 16.0002C57.2851 17.031 57.5988 18.2003 57.6 19.3909V44.6091C57.5988 45.7997 57.2851 46.969 56.6904 47.9998C56.0957 49.0306 55.2409 49.8865 54.2118 50.4818L54.2099 50.4829L32.1882 63.0904C32.1881 63.0905 32.1879 63.0906 32.1877 63.0907C31.1577 63.6864 29.9893 64 28.8 64C27.6107 64 26.4423 63.6864 25.4123 63.0907C25.4121 63.0906 25.4119 63.0905 25.4118 63.0904L3.3901 50.4829L3.38824 50.4818C2.3591 49.8865 1.50431 49.0306 0.909611 47.9998C0.314912 46.969 0.00121888 45.7997 0 44.6091V19.3909C0.00121888 18.2003 0.314912 17.031 0.909611 16.0002C1.50431 14.9694 2.3591 14.1135 3.38824 13.5182L3.3901 13.5171L25.4118 0.909587C25.4121 0.909397 25.4124 0.909208 25.4127 0.909019ZM28.8 0.969893C27.7804 0.969893 26.7788 1.23878 25.8958 1.74954L25.8939 1.75061L3.87227 14.3581C3.87194 14.3583 3.87161 14.3585 3.87129 14.3587C2.98961 14.8689 2.25729 15.6024 1.74773 16.4856C1.23803 17.369 0.969155 18.3712 0.968067 19.3916V44.6084C0.969155 45.6288 1.23803 46.631 1.74773 47.5144C2.25726 48.3975 2.98953 49.131 3.87114 49.6412C3.87152 49.6414 3.87189 49.6416 3.87227 49.6419L25.8958 62.2505C26.7788 62.7612 27.7804 63.0301 28.8 63.0301C29.8196 63.0301 30.8212 62.7612 31.7042 62.2505L31.7061 62.2494L53.7277 49.6419C53.7281 49.6416 53.7285 49.6414 53.7289 49.6412C54.6105 49.131 55.3427 48.3975 55.8523 47.5144C56.362 46.6309 56.6309 45.6286 56.6319 44.6081V19.3919C56.6309 18.3714 56.362 17.3691 55.8523 16.4856C55.3427 15.6024 54.6104 14.8689 53.7287 14.3587C53.7284 14.3585 53.7281 14.3583 53.7277 14.3581L31.7061 1.75061L31.7042 1.74954C30.8212 1.23878 29.8196 0.969893 28.8 0.969893Z" fill="#845EF7"/>
<path fill-rule="evenodd" clip-rule="evenodd" d="M1.03206 16.2364C1.16419 16.0101 1.45647 15.9328 1.68488 16.0637L28.5577 31.4646L55.4305 16.0637C55.6589 15.9328 55.9512 16.0101 56.0833 16.2364C56.2154 16.4627 56.1374 16.7523 55.909 16.8832L28.7969 32.4212C28.6489 32.5061 28.4665 32.5061 28.3185 32.4212L1.2064 16.8832C0.977989 16.7523 0.899936 16.4627 1.03206 16.2364Z" fill="#845EF7"/>
<path fill-rule="evenodd" clip-rule="evenodd" d="M28.5573 31.5151C28.8246 31.5151 29.0413 31.7273 29.0413 31.9891V63.0412C29.0413 63.3029 28.8246 63.5151 28.5573 63.5151C28.29 63.5151 28.0732 63.3029 28.0732 63.0412V31.9891C28.0732 31.7273 28.29 31.5151 28.5573 31.5151Z" fill="#845EF7"/>
</g>
<defs>
<clipPath id="clip0_6_57">
<rect width="58" height="64" fill="white"/>
</clipPath>
</defs>
</svg>
