<svg width="106" height="64" viewBox="0 0 106 64" fill="none" xmlns="http://www.w3.org/2000/svg">
<path fill-rule="evenodd" clip-rule="evenodd" d="M54.6026 22.4516C50.3815 22.4516 46.9595 25.8735 46.9595 30.0947C46.9595 34.3158 50.3815 37.7377 54.6026 37.7377C58.8238 37.7377 62.2457 34.3158 62.2457 30.0947C62.2457 25.8735 58.8238 22.4516 54.6026 22.4516ZM46.0042 30.0947C46.0042 25.3459 49.8538 21.4962 54.6026 21.4962C59.3514 21.4962 63.2011 25.3459 63.2011 30.0947C63.2011 34.8435 59.3514 38.6931 54.6026 38.6931C49.8538 38.6931 46.0042 34.8435 46.0042 30.0947Z" fill="#845EF7"/>
<path fill-rule="evenodd" clip-rule="evenodd" d="M54.8422 0.957898C53.5296 0.957898 52.2708 1.47932 51.3426 2.40747C50.4145 3.33561 49.8931 4.59444 49.8931 5.90704V6.36842L49.8931 6.37033C49.8892 7.33708 49.6028 8.2816 49.069 9.08763C48.5352 9.89366 47.7773 10.526 46.8888 10.9068C46.8291 10.9324 46.7649 10.9456 46.7001 10.9456H46.5813C45.7002 11.3127 44.7311 11.4179 43.7904 11.2473C42.8158 11.0706 41.9165 10.606 41.2085 9.91338L41.2047 9.90968L41.0419 9.74682C40.5823 9.28667 40.0362 8.92143 39.4354 8.67237C38.8346 8.42331 38.1906 8.29511 37.5402 8.29511C36.8898 8.29511 36.2458 8.42331 35.645 8.67237C35.0442 8.92143 34.4983 9.28648 34.0387 9.74663L34.0383 9.74701C33.5781 10.2066 33.2131 10.7525 32.964 11.3533C32.715 11.9541 32.5868 12.5981 32.5868 13.2485C32.5868 13.8989 32.715 14.5429 32.964 15.1437C33.2131 15.7446 33.5781 16.2904 34.0383 16.75L34.2051 16.9168C34.8977 17.6249 35.3623 18.5242 35.539 19.4988C35.7148 20.4684 35.5976 21.4683 35.2026 22.3708C34.8582 23.2984 34.2441 24.1018 33.4392 24.6775C32.6301 25.2561 31.6657 25.578 30.6713 25.6013L30.6601 25.6014H30.4158C29.1032 25.6014 27.8444 26.1228 26.9163 27.051C25.9881 27.9791 25.4667 29.238 25.4667 30.5506C25.4667 31.8631 25.9881 33.122 26.9163 34.0501C27.8444 34.9783 29.1032 35.4997 30.4158 35.4997H30.8791C31.8459 35.5035 32.7904 35.79 33.5964 36.3238C34.4017 36.8571 35.0337 37.6141 35.4146 38.5017C35.8137 39.4072 35.9327 40.4115 35.7561 41.3852C35.5794 42.3598 35.1148 43.2591 34.4222 43.9672L34.4185 43.9709L34.2556 44.1338C33.7955 44.5934 33.4302 45.1394 33.1812 45.7402C32.9321 46.341 32.8039 46.9851 32.8039 47.6355C32.8039 48.2858 32.9321 48.9299 33.1812 49.5307C33.4302 50.1315 33.7953 50.6773 34.2554 51.137L34.2558 51.1373C34.7154 51.5975 35.2613 51.9625 35.8621 52.2116C36.4629 52.4607 37.1069 52.5889 37.7573 52.5889C38.4077 52.5889 39.0517 52.4607 39.6525 52.2116C40.2534 51.9625 40.7992 51.5975 41.2588 51.1373L41.4256 50.9706C42.1336 50.278 43.033 49.8134 44.0076 49.6367C44.9772 49.4609 45.9771 49.578 46.8796 49.9731C47.8072 50.3174 48.6106 50.9315 49.1863 51.7365C49.7649 52.5455 50.0868 53.5099 50.1101 54.5044L50.1102 54.5156V54.7598C50.1102 56.0724 50.6316 57.3312 51.5598 58.2594C52.4879 59.1875 53.7467 59.709 55.0593 59.709C56.3719 59.709 57.6308 59.1875 58.5589 58.2594C59.487 57.3312 60.0085 56.0724 60.0085 54.7598V54.2984V54.2965C60.0123 53.3298 60.2988 52.3853 60.8326 51.5792C61.3659 50.774 62.1228 50.1421 63.0102 49.7611C63.9158 49.3619 64.9202 49.243 65.894 49.4195C66.8686 49.5963 67.7679 50.0609 68.4759 50.7535L68.4797 50.7572L68.6425 50.92C69.1022 51.3802 69.6482 51.7454 70.249 51.9945C70.8498 52.2435 71.4939 52.3717 72.1442 52.3717C72.7946 52.3717 73.4386 52.2435 74.0395 51.9945C74.6403 51.7454 75.1861 51.3804 75.6458 50.9202L75.6461 50.9198C76.1063 50.4602 76.4713 49.9144 76.7204 49.3136C76.9695 48.7127 77.0977 48.0687 77.0977 47.4183C77.0977 46.7679 76.9695 46.1239 76.7204 45.5231C76.4713 44.9223 76.1063 44.3764 75.6461 43.9168L75.4794 43.75C74.7868 43.042 74.3222 42.1427 74.1455 41.1681C73.9689 40.1943 74.0879 39.1899 74.487 38.2843C74.868 37.3968 75.4999 36.64 76.3051 36.1067C77.1112 35.5729 78.0557 35.2864 79.0224 35.2826L79.0243 35.2826L79.2686 35.2826C80.5812 35.2826 81.84 34.7611 82.7682 33.833C83.6963 32.9049 84.2177 31.646 84.2177 30.3334C84.2177 29.0208 83.6963 27.762 82.7682 26.8339C81.84 25.9057 80.5812 25.3843 79.2686 25.3843H78.8072L78.8053 25.3843C77.8386 25.3804 76.894 25.094 76.088 24.5602C75.282 24.0264 74.6496 23.2686 74.2688 22.38C74.2432 22.3204 74.2301 22.2562 74.2301 22.1913V22.0725C73.863 21.1914 73.7578 20.2223 73.9283 19.2816C74.105 18.3071 74.5697 17.4078 75.2623 16.6997L75.266 16.6959L75.4288 16.5331C75.889 16.0735 76.2542 15.5274 76.5033 14.9266C76.7523 14.3258 76.8805 13.6818 76.8805 13.0314C76.8805 12.381 76.7523 11.737 76.5033 11.1362C76.2542 10.5354 75.8892 9.98953 75.429 9.52988L75.4286 9.52951C74.969 9.06935 74.4232 8.70431 73.8223 8.45525C73.2215 8.20619 72.5775 8.07799 71.9271 8.07799C71.2767 8.07799 70.6327 8.20619 70.0319 8.45525C69.4311 8.70431 68.8852 9.06936 68.4256 9.52951L68.2588 9.69627C67.5508 10.3889 66.6515 10.8535 65.6769 11.0302C64.7031 11.2067 63.6989 11.0878 62.7933 10.6887C61.9058 10.3078 61.1488 9.67583 60.6155 8.87051C60.0817 8.06448 59.7952 7.11996 59.7914 6.15321L59.7914 6.1513V5.90704C59.7914 4.59444 59.2699 3.33561 58.3418 2.40747C57.4136 1.47932 56.1548 0.957898 54.8422 0.957898ZM50.6653 1.73013C51.7731 0.622347 53.2756 0 54.8422 0C56.4089 0 57.9113 0.622347 59.0191 1.73013C60.1269 2.83791 60.7493 4.34039 60.7493 5.90704L60.7492 6.14939C60.7492 6.14969 60.7493 6.14998 60.7493 6.15028C60.7525 6.92991 60.9836 7.69158 61.4141 8.34161C61.8448 8.99188 62.4561 9.50204 63.173 9.80929L63.1777 9.81131C63.9088 10.1339 64.7197 10.2302 65.506 10.0877C66.2914 9.94524 67.0162 9.57104 67.5872 9.01324C67.5878 9.01266 67.5884 9.01207 67.589 9.01149L67.7479 8.85255C67.7478 8.85261 67.748 8.85249 67.7479 8.85255C68.2965 8.30342 68.9481 7.8676 69.6651 7.57037C70.3822 7.2731 71.1508 7.12009 71.9271 7.12009C72.7034 7.12009 73.4721 7.2731 74.1892 7.57037C74.9061 7.86757 75.5574 8.30313 76.106 8.85217C76.6552 9.40078 77.0909 10.0523 77.3881 10.7694C77.6854 11.4865 77.8384 12.2551 77.8384 13.0314C77.8384 13.8077 77.6854 14.5763 77.3881 15.2934C77.0909 16.0105 76.6552 16.662 76.106 17.2106L75.947 17.3695C75.9464 17.3701 75.9458 17.3708 75.9452 17.3714C75.3874 17.9423 75.0133 18.6671 74.8709 19.4525C74.7283 20.2388 74.8245 21.0497 75.1472 21.7808C75.1741 21.8417 75.188 21.9076 75.188 21.9742V22.0901C75.4985 22.7692 75.9932 23.3485 76.6169 23.7615C77.2669 24.192 78.0286 24.4231 78.8082 24.4264H79.2686C80.8353 24.4264 82.3377 25.0487 83.4455 26.1565C84.5533 27.2643 85.1756 28.7668 85.1756 30.3334C85.1756 31.9001 84.5533 33.4025 83.4455 34.5103C82.3377 35.6181 80.8353 36.2405 79.2686 36.2405L79.0263 36.2405C79.026 36.2405 79.0257 36.2405 79.0254 36.2405C78.2457 36.2437 77.4841 36.4748 76.834 36.9053C76.1838 37.336 75.6736 37.9474 75.3664 38.6642L75.3643 38.6689C75.0417 39.4 74.9454 40.2109 75.088 40.9972C75.2304 41.7826 75.6045 42.5073 76.1622 43.0783C76.1629 43.0789 76.1635 43.0796 76.1642 43.0802L76.3231 43.2391C76.323 43.239 76.3232 43.2392 76.3231 43.2391C76.8722 43.7877 77.308 44.4393 77.6053 45.1563C77.9025 45.8734 78.0555 46.6421 78.0555 47.4183C78.0555 48.1946 77.9025 48.9633 77.6053 49.6804C77.308 50.3974 76.8724 51.0488 76.3233 51.5974C75.7747 52.1465 75.1233 52.5821 74.4063 52.8794C73.6892 53.1766 72.9205 53.3296 72.1442 53.3296C71.368 53.3296 70.5993 53.1766 69.8822 52.8794C69.1652 52.5821 68.5138 52.1465 67.9652 51.5974C67.9651 51.5973 67.9653 51.5974 67.9652 51.5974L67.8061 51.4382C67.8055 51.4376 67.8048 51.437 67.8042 51.4363C67.2332 50.8786 66.5085 50.5045 65.7231 50.3621C64.9368 50.2195 64.1259 50.3158 63.3949 50.6384L63.3902 50.6405C62.6733 50.9477 62.0619 51.4579 61.6312 52.1081C61.2008 52.7582 60.9697 53.5198 60.9664 54.2995C60.9664 54.2997 60.9664 54.3 60.9664 54.3003L60.9664 54.7598C60.9664 56.3265 60.344 57.8289 59.2362 58.9367C58.1285 60.0445 56.626 60.6669 55.0593 60.6669C53.4927 60.6669 51.9902 60.0445 50.8824 58.9367C49.7747 57.8289 49.1523 56.3265 49.1523 54.7598V54.5213C49.1325 53.721 48.8729 52.945 48.4072 52.2937C47.9403 51.641 47.2879 51.1439 46.5348 50.8669C46.5297 50.865 46.5246 50.863 46.5196 50.861C46.5153 50.8592 46.511 50.8574 46.5067 50.8555C45.7757 50.5329 44.9647 50.4366 44.1785 50.5792C43.3931 50.7216 42.6683 51.0958 42.0973 51.6535C42.0967 51.6541 42.0961 51.6548 42.0954 51.6554L41.9365 51.8143C41.3879 52.3635 40.7365 52.7992 40.0194 53.0965C39.3023 53.3938 38.5336 53.5468 37.7573 53.5468C36.981 53.5468 36.2124 53.3938 35.4953 53.0965C34.7782 52.7992 34.1267 52.3635 33.5781 51.8143C33.029 51.2658 32.5935 50.6144 32.2963 49.8975C31.999 49.1804 31.846 48.4117 31.846 47.6355C31.846 46.8592 31.999 46.0905 32.2963 45.3734C32.5935 44.6564 33.0291 44.005 33.5783 43.4564C33.5782 43.4565 33.5783 43.4564 33.5783 43.4564L33.7374 43.2973C33.738 43.2967 33.7386 43.2961 33.7392 43.2955C34.297 42.7245 34.6712 41.9997 34.8136 41.2143C34.9561 40.4281 34.8599 39.6171 34.5372 38.8861L34.5352 38.8814C34.2279 38.1645 33.7178 37.5531 33.0675 37.1224C32.4175 36.692 31.6558 36.4609 30.8762 36.4576C30.8759 36.4576 30.8756 36.4576 30.8753 36.4576L30.4158 36.4576C28.8492 36.4576 27.3467 35.8352 26.2389 34.7275C25.1311 33.6197 24.5088 32.1172 24.5088 30.5506C24.5088 28.9839 25.1311 27.4814 26.2389 26.3736C27.3467 25.2659 28.8492 24.6435 30.4158 24.6435H30.6544C31.4547 24.6237 32.2307 24.3641 32.8819 23.8984C33.5346 23.4315 34.0318 22.7791 34.3088 22.026C34.3123 22.0165 34.316 22.0071 34.3201 21.9979C34.6428 21.2669 34.739 20.4559 34.5964 19.6697C34.454 18.8842 34.0798 18.1594 33.5221 17.5885L33.3613 17.4278C32.8121 16.8791 32.3764 16.2277 32.0792 15.5106C31.7819 14.7935 31.6289 14.0248 31.6289 13.2485C31.6289 12.4722 31.7819 11.7036 32.0792 10.9865C32.3764 10.2694 32.8121 9.6179 33.3613 9.0693C33.9099 8.52026 34.5612 8.08469 35.2781 7.78749C35.9952 7.49022 36.7639 7.33722 37.5402 7.33722C38.3165 7.33722 39.0851 7.49022 39.8022 7.78749C40.5193 8.08473 41.1707 8.52036 41.7192 9.06948C41.7192 9.06942 41.7193 9.06955 41.7192 9.06948L41.8802 9.23044C42.4511 9.7882 43.1759 10.1624 43.9613 10.3048C44.7476 10.4473 45.5585 10.3511 46.2896 10.0285C46.3505 10.0016 46.4164 9.98768 46.483 9.98768H46.5989C47.278 9.67718 47.8573 9.1824 48.2703 8.55873C48.7008 7.9087 48.9319 7.14703 48.9352 6.36741V5.90704C48.9352 4.34039 49.5575 2.83791 50.6653 1.73013Z" fill="#845EF7"/>
<path fill-rule="evenodd" clip-rule="evenodd" d="M18.0466 43.7651C16.3156 43.135 14.4015 44.0275 13.7715 45.7586C13.1414 47.4897 14.034 49.4037 15.765 50.0338C17.4961 50.6638 19.4101 49.7713 20.0402 48.0402C20.6703 46.3092 19.7777 44.3951 18.0466 43.7651ZM13.3797 45.616C14.0885 43.6686 16.2418 42.6644 18.1892 43.3733C20.1367 44.0821 21.1408 46.2354 20.432 48.1828C19.7232 50.1303 17.5699 51.1344 15.6224 50.4256C13.675 49.7168 12.6709 47.5635 13.3797 45.616Z" fill="#845EF7"/>
<path fill-rule="evenodd" clip-rule="evenodd" d="M21.3532 34.9862C20.8149 34.7903 20.2208 34.8163 19.7017 35.0583C19.1825 35.3004 18.7808 35.7388 18.5849 36.2771L18.516 36.4663L18.5157 36.4671C18.3698 36.863 18.1114 37.2076 17.7722 37.4585C17.4329 37.7093 17.0278 37.8555 16.6065 37.8791C16.5783 37.8807 16.55 37.8765 16.5234 37.8668L16.4747 37.8491C16.0585 37.8681 15.6454 37.7666 15.2851 37.5562C14.9118 37.3383 14.6124 37.0135 14.4254 36.6238L14.4244 36.6217L14.3819 36.5306C14.2621 36.2733 14.0927 36.0421 13.8835 35.8502C13.6743 35.6584 13.4293 35.5097 13.1626 35.4126C12.8959 35.3156 12.6126 35.272 12.3291 35.2845C12.0455 35.2969 11.7672 35.3652 11.51 35.4853L11.5098 35.4854C11.2525 35.6052 11.0213 35.7745 10.8295 35.9837C10.6376 36.193 10.4889 36.4379 10.3919 36.7046C10.2948 36.9714 10.2512 37.2546 10.2637 37.5382C10.2762 37.8217 10.3444 38.1001 10.4645 38.3573L10.508 38.4505C10.6863 38.8443 10.7426 39.2824 10.6696 39.7085C10.597 40.1324 10.3997 40.5249 10.103 40.8361C9.82331 41.1651 9.45155 41.4029 9.03552 41.5188C8.61737 41.6354 8.17382 41.6234 7.76255 41.4845L7.75794 41.4829L7.65777 41.4464C7.11948 41.2505 6.52542 41.2765 6.00626 41.5185C5.48709 41.7606 5.08537 42.199 4.88945 42.7373C4.69353 43.2756 4.71946 43.8697 4.96155 44.3888C5.20364 44.908 5.64205 45.3097 6.18034 45.5056L6.37033 45.5748C6.76621 45.7207 7.1108 45.9791 7.36167 46.3183C7.61232 46.6573 7.75849 47.062 7.78223 47.4829C7.81073 47.9138 7.7096 48.3434 7.49186 48.7164C7.27392 49.0896 6.94916 49.3891 6.55944 49.5761L6.55736 49.5771L6.46627 49.6195C6.20896 49.7394 5.97768 49.9088 5.78586 50.118C5.59404 50.3272 5.44534 50.5722 5.34827 50.8389C5.25119 51.1056 5.20763 51.3888 5.22009 51.6724C5.23255 51.956 5.30078 52.2343 5.42088 52.4915L5.42098 52.4917C5.54079 52.749 5.71015 52.9802 5.91936 53.172C6.12858 53.3638 6.37355 53.5125 6.64027 53.6096C6.90699 53.7067 7.19023 53.7502 7.4738 53.7378C7.75736 53.7253 8.03569 53.6571 8.29287 53.537L8.38615 53.4935C8.7799 53.3151 9.21805 53.2588 9.6441 53.3318C10.068 53.4045 10.4605 53.6018 10.7717 53.8985C11.1007 54.1782 11.3385 54.5499 11.4544 54.9659C11.571 55.3841 11.559 55.8276 11.4201 56.2389L11.4185 56.2435L11.3821 56.3437C11.1861 56.882 11.2121 57.476 11.4542 57.9952C11.6963 58.5144 12.1347 58.9161 12.6729 59.112C13.2112 59.3079 13.8053 59.282 14.3245 59.0399C14.8436 58.7978 15.2453 58.3594 15.4413 57.8211L15.5101 57.6319L15.5104 57.6311C15.6563 57.2352 15.9148 56.8907 16.254 56.6398C16.5929 56.3892 16.9976 56.243 17.4184 56.2192C17.8493 56.1907 18.279 56.2918 18.652 56.5096C19.0253 56.7275 19.3247 57.0523 19.5117 57.442L19.5127 57.4441L19.5552 57.5352C19.675 57.7925 19.8444 58.0238 20.0536 58.2156C20.2628 58.4074 20.5078 58.5561 20.7745 58.6532C21.0412 58.7503 21.3245 58.7938 21.608 58.7814C21.8916 58.7689 22.1699 58.7007 22.4271 58.5806L22.4273 58.5805C22.6846 58.4607 22.9158 58.2913 23.1076 58.0821C23.2994 57.8729 23.4481 57.6279 23.5452 57.3612C23.6423 57.0945 23.6858 56.8112 23.6734 56.5277C23.6609 56.2441 23.5927 55.9658 23.4726 55.7086L23.4291 55.6153C23.2507 55.2216 23.1945 54.7834 23.2675 54.3574C23.3404 53.9317 23.5391 53.5375 23.838 53.2257C24.1267 52.9186 24.4988 52.7026 24.9086 52.6041C25.3188 52.5055 25.7489 52.529 26.146 52.6717L26.1467 52.672L26.2469 52.7084C26.7852 52.9044 27.3793 52.8784 27.8984 52.6363C28.4176 52.3942 28.8193 51.9558 29.0152 51.4176C29.2111 50.8793 29.1852 50.2852 28.9431 49.766C28.701 49.2469 28.2626 48.8452 27.7243 48.6492L27.5351 48.5804L27.5343 48.5801C27.1385 48.4342 26.7939 48.1757 26.543 47.8365C26.2921 47.4973 26.1459 47.0922 26.1224 46.6709C26.1208 46.6426 26.125 46.6144 26.1347 46.5878L26.1524 46.539C26.1334 46.1229 26.2349 45.7098 26.4452 45.3495C26.6632 44.9762 26.9879 44.6767 27.3776 44.4898L27.3797 44.4888L27.4708 44.4463C27.7281 44.3265 27.9594 44.1571 28.1512 43.9479C28.343 43.7387 28.4917 43.4937 28.5888 43.227C28.6859 42.9602 28.7294 42.677 28.717 42.3934C28.7045 42.1099 28.6363 41.8315 28.5162 41.5744L28.5161 41.5741C28.3963 41.3168 28.2269 41.0857 28.0177 40.8938C27.8085 40.702 27.5635 40.5533 27.2968 40.4563C27.0301 40.3592 26.7469 40.3156 26.4633 40.3281C26.1797 40.3405 25.9014 40.4088 25.6442 40.5289L25.5509 40.5724C25.1572 40.7507 24.719 40.807 24.293 40.734C23.8673 40.6611 23.4732 40.4624 23.1614 40.1636C22.8543 39.8749 22.6382 39.5027 22.5397 39.0929C22.4411 38.6826 22.4646 38.2525 22.6073 37.8555L22.6076 37.8547L22.6441 37.7546C22.84 37.2163 22.814 36.6222 22.572 36.103C22.3299 35.5839 21.8915 35.1822 21.3532 34.9862ZM19.525 34.6795C20.1446 34.3905 20.8537 34.3596 21.4962 34.5934C22.1386 34.8272 22.6619 35.3067 22.9508 35.9264C23.2398 36.546 23.2707 37.2551 23.0369 37.8975L23.0007 37.9969C23.0007 37.997 23.0006 37.9972 23.0006 37.9973C22.8856 38.3175 22.8666 38.6643 22.9462 38.9952C23.0257 39.3261 23.2003 39.6266 23.4484 39.8596L23.45 39.8611C23.7017 40.1026 24.0199 40.2631 24.3636 40.322C24.7069 40.3808 25.06 40.3355 25.3774 40.192C25.3778 40.1919 25.3781 40.1917 25.3784 40.1916L25.4673 40.1501C25.4673 40.1501 25.4674 40.1501 25.4673 40.1501C25.7743 40.0068 26.1065 39.9253 26.4449 39.9104C26.7834 39.8956 27.1214 39.9476 27.4398 40.0634C27.7581 40.1793 28.0505 40.3568 28.3002 40.5857C28.5499 40.8146 28.752 41.0904 28.895 41.3975C29.0383 41.7044 29.1198 42.0366 29.1346 42.3751C29.1495 42.7135 29.0975 43.0516 28.9816 43.3699C28.8658 43.6883 28.6883 43.9807 28.4594 44.2304C28.2304 44.4801 27.9545 44.6822 27.6474 44.8252L27.5585 44.8667C27.5581 44.8668 27.5578 44.867 27.5574 44.8672C27.2435 45.018 26.9819 45.2594 26.8062 45.5603C26.6304 45.8614 26.5488 46.2083 26.572 46.5563C26.574 46.5853 26.5698 46.6144 26.5599 46.6417L26.5426 46.6892C26.5686 47.0141 26.685 47.3255 26.8791 47.588C27.0814 47.8615 27.3593 48.07 27.6785 48.1877L27.8673 48.2564C28.5098 48.4902 29.033 48.9697 29.322 49.5894C29.6109 50.209 29.6419 50.9181 29.4081 51.5605C29.1742 52.203 28.6947 52.7263 28.0751 53.0152C27.4554 53.3042 26.7464 53.3351 26.1039 53.1013L26.0045 53.0651C26.0044 53.0651 26.0043 53.065 26.0042 53.065C25.684 52.9499 25.3371 52.931 25.0063 53.0105C24.6753 53.0901 24.3749 53.2647 24.1419 53.5128L24.1403 53.5144C23.8989 53.7661 23.7384 54.0842 23.6795 54.428C23.6207 54.7713 23.6659 55.1244 23.8094 55.4417C23.8096 55.4421 23.8097 55.4425 23.8099 55.4428L23.8514 55.5317C23.8514 55.5317 23.8514 55.5317 23.8514 55.5317C23.9947 55.8386 24.0761 56.1709 24.091 56.5093C24.1059 56.8478 24.0539 57.1858 23.938 57.5042C23.8222 57.8225 23.6447 58.1149 23.4157 58.3646C23.1868 58.6143 22.911 58.8164 22.6039 58.9594C22.297 59.1027 21.9648 59.1841 21.6264 59.199C21.2879 59.2139 20.9499 59.1619 20.6315 59.046C20.3132 58.9302 20.0208 58.7527 19.7711 58.5237C19.5214 58.2948 19.3193 58.0189 19.1763 57.7119C19.1763 57.7118 19.1763 57.7119 19.1763 57.7119L19.1348 57.6229C19.1346 57.6225 19.1345 57.6221 19.1343 57.6218C18.9834 57.3079 18.742 57.0462 18.4412 56.8706C18.14 56.6948 17.7931 56.6132 17.4452 56.6364L17.4429 56.6366C17.1031 56.6556 16.7762 56.7735 16.5025 56.9759C16.229 57.1782 16.0205 57.4561 15.9028 57.7753C15.9028 57.7754 15.9027 57.7756 15.9027 57.7757L15.8341 57.9641C15.6003 58.6066 15.1208 59.1298 14.5011 59.4188C13.8815 59.7077 13.1724 59.7387 12.53 59.5048C11.8875 59.271 11.3642 58.7915 11.0753 58.1719C10.7863 57.5522 10.7554 56.8432 10.9892 56.2007L11.0248 56.1029C11.1362 55.7717 11.1455 55.4148 11.0517 55.0782C10.9577 54.7408 10.7644 54.4396 10.4969 54.2135C10.4951 54.212 10.4933 54.2105 10.4915 54.2089C10.49 54.2075 10.4885 54.2061 10.4871 54.2047C10.2354 53.9633 9.91722 53.8028 9.5735 53.7439C9.23016 53.685 8.87707 53.7303 8.55968 53.8738C8.55933 53.874 8.55898 53.8741 8.55864 53.8743L8.46975 53.9158C8.1628 54.0591 7.8306 54.1405 7.49215 54.1554C7.1537 54.1703 6.81564 54.1183 6.49729 54.0024C6.17895 53.8865 5.88656 53.7091 5.63685 53.4801C5.38715 53.2512 5.18501 52.9753 5.04201 52.6682C4.89873 52.3613 4.81733 52.0291 4.80246 51.6908C4.78759 51.3523 4.83957 51.0142 4.95544 50.6959C5.07131 50.3776 5.24879 50.0852 5.47773 49.8355C5.70665 49.5858 5.98253 49.3837 6.2896 49.2407C6.28956 49.2407 6.28963 49.2407 6.2896 49.2407L6.3786 49.1992C6.37894 49.199 6.37927 49.1989 6.37961 49.1987C6.69357 49.0478 6.95521 48.8064 7.13084 48.5056C7.30667 48.2044 7.38824 47.8575 7.36505 47.5095L7.36489 47.5073C7.3459 47.1675 7.22796 46.8406 7.02556 46.5669C6.82324 46.2934 6.54538 46.0849 6.22615 45.9672C6.22603 45.9671 6.22591 45.9671 6.22579 45.9671L6.03736 45.8985C5.39489 45.6646 4.87163 45.1852 4.58268 44.5655C4.29374 43.9459 4.26278 43.2368 4.49662 42.5943C4.73046 41.9519 5.20994 41.4286 5.82958 41.1397C6.44923 40.8507 7.15828 40.8198 7.80074 41.0536L7.89856 41.0892C8.22973 41.2005 8.5867 41.2099 8.92329 41.1161C9.26064 41.0221 9.5619 40.8288 9.78792 40.5612C9.79076 40.5579 9.79371 40.5546 9.79675 40.5514C10.0382 40.2998 10.1987 39.9816 10.2576 39.6379C10.3164 39.2945 10.2712 38.9414 10.1276 38.624L10.0857 38.5341C9.94237 38.2272 9.86093 37.895 9.84606 37.5565C9.83119 37.2181 9.88318 36.88 9.99904 36.5617C10.1149 36.2433 10.2924 35.9509 10.5213 35.7012C10.7503 35.4515 11.0262 35.2494 11.3333 35.1064C11.6402 34.9631 11.9723 34.8817 12.3107 34.8668C12.6492 34.852 12.9872 34.904 13.3056 35.0198C13.6239 35.1357 13.9163 35.3132 14.166 35.5421C14.4157 35.771 14.6178 36.0469 14.7608 36.354C14.7608 36.3539 14.7608 36.354 14.7608 36.354L14.8028 36.444C14.9537 36.758 15.195 37.0196 15.4959 37.1952C15.797 37.371 16.144 37.4526 16.4919 37.4294C16.5209 37.4275 16.55 37.4316 16.5773 37.4416L16.6248 37.4589C16.9497 37.4329 17.2611 37.3165 17.5236 37.1223C17.7971 36.92 18.0056 36.6422 18.1233 36.3229L18.192 36.1341C18.4259 35.4917 18.9054 34.9684 19.525 34.6795Z" fill="#845EF7"/>
</svg>
